<svg width="15" height="15" viewBox="0 0 15 15" fill="none" xmlns="http://www.w3.org/2000/svg">
<g clip-path="url(#clip0_4197_3533)">
<path d="M4.45555 4.45457C6.32408 4.45457 7.83883 3.6972 7.83883 2.76293C7.83883 1.82866 6.32408 1.07129 4.45555 1.07129C2.58701 1.07129 1.07227 1.82866 1.07227 2.76293C1.07227 3.6972 2.58701 4.45457 4.45555 4.45457Z" stroke="white" stroke-width="0.86612" stroke-linecap="round" stroke-linejoin="round"/>
<path d="M1.07227 2.76367C1.07227 2.76367 1.07227 4.19771 1.07227 5.13197C1.07227 6.06623 2.58701 6.82361 4.45555 6.82361C6.32407 6.82361 7.83883 6.06623 7.83883 5.13197C7.83883 4.5786 7.83883 2.76367 7.83883 2.76367" stroke="white" stroke-width="0.86612" stroke-linecap="round" stroke-linejoin="round"/>
<path d="M1.07227 5.13184C1.07227 5.13184 1.07227 6.56587 1.07227 7.50013C1.07227 8.43439 2.58701 9.19177 4.45555 9.19177C6.32407 9.19177 7.83883 8.43439 7.83883 7.50013C7.83883 6.94676 7.83883 5.13184 7.83883 5.13184" stroke="white" stroke-width="0.86612" stroke-linecap="round" stroke-linejoin="round"/>
<path d="M1.07227 7.5C1.07227 7.5 1.07227 8.93404 1.07227 9.8683C1.07227 10.8026 2.58701 11.5599 4.45555 11.5599C6.32407 11.5599 7.83883 10.8026 7.83883 9.8683C7.83883 9.31493 7.83883 7.5 7.83883 7.5" stroke="white" stroke-width="0.86612" stroke-linecap="round" stroke-linejoin="round"/>
<path d="M1.07227 9.86865C1.07227 9.86865 1.07227 11.3027 1.07227 12.237C1.07227 13.1712 2.58701 13.9286 4.45555 13.9286C6.32407 13.9286 7.83883 13.1712 7.83883 12.237C7.83883 11.6836 7.83883 9.86865 7.83883 9.86865" stroke="white" stroke-width="0.86612" stroke-linecap="round" stroke-linejoin="round"/>
<path d="M11.2231 9.19236C13.0917 9.19236 14.6064 8.43499 14.6064 7.50072C14.6064 6.56646 13.0917 5.80908 11.2231 5.80908C9.35459 5.80908 7.83984 6.56646 7.83984 7.50072C7.83984 8.43499 9.35459 9.19236 11.2231 9.19236Z" stroke="white" stroke-width="0.86612" stroke-linecap="round" stroke-linejoin="round"/>
<path d="M7.83984 7.5C7.83984 7.5 7.83984 8.93404 7.83984 9.8683C7.83984 10.8026 9.35461 11.5599 11.2231 11.5599C13.0916 11.5599 14.6064 10.8026 14.6064 9.8683C14.6064 9.31493 14.6064 7.5 14.6064 7.5" stroke="white" stroke-width="0.86612" stroke-linecap="round" stroke-linejoin="round"/>
<path d="M7.83984 9.86865C7.83984 9.86865 7.83984 11.3027 7.83984 12.237C7.83984 13.1712 9.35461 13.9286 11.2231 13.9286C13.0916 13.9286 14.6064 13.1712 14.6064 12.237C14.6064 11.6836 14.6064 9.86865 14.6064 9.86865" stroke="white" stroke-width="0.86612" stroke-linecap="round" stroke-linejoin="round"/>
</g>
<defs>
<clipPath id="clip0_4197_3533">
<rect width="15" height="15" fill="white"/>
</clipPath>
</defs>
</svg>
