<svg width="15" height="15" viewBox="0 0 15 15" fill="none" xmlns="http://www.w3.org/2000/svg">
<path d="M3.75 6.25V3.125C3.75 2.0625 4.5625 1.25 5.625 1.25H6.25" stroke="white" stroke-linecap="round" stroke-linejoin="round"/>
<path d="M1.875 4.375L3.75 6.25L5.625 4.375" stroke="white" stroke-linecap="round" stroke-linejoin="round"/>
<path d="M11.25 6.25C12.6307 6.25 13.75 5.13071 13.75 3.75C13.75 2.36929 12.6307 1.25 11.25 1.25C9.86929 1.25 8.75 2.36929 8.75 3.75C8.75 5.13071 9.86929 6.25 11.25 6.25Z" stroke="white" stroke-linecap="round" stroke-linejoin="round"/>
<path d="M11.25 8.75V11.875C11.25 12.9375 10.4375 13.75 9.375 13.75H8.75" stroke="white" stroke-linecap="round" stroke-linejoin="round"/>
<path d="M13.125 10.625L11.25 8.75L9.375 10.625" stroke="white" stroke-linecap="round" stroke-linejoin="round"/>
<path d="M3.75 13.75C5.13071 13.75 6.25 12.6307 6.25 11.25C6.25 9.86929 5.13071 8.75 3.75 8.75C2.36929 8.75 1.25 9.86929 1.25 11.25C1.25 12.6307 2.36929 13.75 3.75 13.75Z" stroke="white" stroke-linecap="round" stroke-linejoin="round"/>
</svg>
