<svg width="15" height="15" viewBox="0 0 15 15" fill="none" xmlns="http://www.w3.org/2000/svg">
<g clip-path="url(#clip0_4190_1966)">
<path fill-rule="evenodd" clip-rule="evenodd" d="M13.2934 3L11.1464 0.853996L11.8544 0.145996L14.8544 3.146C14.901 3.19244 14.9379 3.24762 14.9631 3.30836C14.9883 3.36911 15.0013 3.43423 15.0013 3.5C15.0013 3.56576 14.9883 3.63088 14.9631 3.69163C14.9379 3.75238 14.901 3.80755 14.8544 3.854L11.8544 6.854L11.1464 6.146L13.2934 4H3.50039C2.83735 4 2.20147 4.26339 1.73263 4.73223C1.26379 5.20107 1.00039 5.83696 1.00039 6.5V8H0.000393227V6.5C0.000393227 5.57174 0.369142 4.6815 1.02552 4.02512C1.6819 3.36875 2.57214 3 3.50039 3H13.2934ZM15.0004 7V8.5C15.0004 9.42825 14.6316 10.3185 13.9753 10.9749C13.3189 11.6312 12.4287 12 11.5004 12H1.70739L3.85439 14.146L3.14639 14.854L0.146393 11.854C0.0526577 11.7602 0 11.6331 0 11.5005C0 11.3679 0.0526577 11.2408 0.146393 11.147L3.14639 8.147L3.85439 8.854L1.70739 11H11.5004C12.1634 11 12.7993 10.7366 13.2682 10.2678C13.737 9.79892 14.0004 9.16304 14.0004 8.5V7H15.0004Z" fill="white"/>
</g>
<defs>
<clipPath id="clip0_4190_1966">
<rect width="15" height="15" fill="white"/>
</clipPath>
</defs>
</svg>
