<svg width="100" height="100" viewBox="0 0 100 100" fill="none" xmlns="http://www.w3.org/2000/svg">
<circle cx="50" cy="50" r="50" fill="#171717"/>
<g clip-path="url(#clip0_3638_75)">
<path d="M41.2494 42.6488C40.4079 42.2037 39.3646 42.5272 38.9196 43.371C38.8953 43.4173 38.8734 43.4635 38.8539 43.5121C37.5018 45.9465 36.1083 48.6678 34.6296 51.5618C33.8004 53.1839 32.9419 54.8619 32.0737 56.5181C30.4248 59.6601 28.7079 61.3479 27.1028 61.4111C26.1981 61.4476 25.4053 62.0994 25.347 63.0016C25.2837 63.9963 26.0692 64.8183 27.0444 64.8183C27.0493 64.8183 27.0542 64.8183 27.059 64.8183C30.06 64.7915 32.7619 62.5323 35.0893 58.0988C35.9672 56.4257 36.8281 54.7403 37.6598 53.1109C38.922 50.6401 41.9692 44.9786 41.9692 44.9786C42.4143 44.1371 42.0908 43.0938 41.2469 42.6488H41.2494Z" fill="url(#paint0_linear_3638_75)"/>
<path d="M64.5425 52.1578C64.5425 52.1578 61.0794 45.3751 59.6786 42.8897C58.932 41.5667 58.2389 40.4116 57.5823 39.395C56.6581 37.9626 55.807 36.8123 54.9874 35.8809C53.0929 33.731 51.2811 32.6853 49.445 32.6853C48.5841 32.6853 47.75 32.9188 46.9304 33.3565C46.9085 33.3687 46.8939 33.3833 46.8745 33.3954C46.8039 33.427 46.7358 33.4611 46.6702 33.5024C45.8798 33.9961 45.639 35.0346 46.1327 35.8249C46.6264 36.6153 47.6649 36.8561 48.4552 36.3624C48.4625 36.3575 48.4674 36.3527 48.4747 36.3478C48.5355 36.3308 48.5987 36.3113 48.6571 36.2846C48.9684 36.1435 49.2286 36.09 49.445 36.09C50.2257 36.09 51.2593 36.7953 52.4339 38.1304C53.1294 38.9184 53.8614 39.9081 54.6664 41.146C55.2987 42.1212 55.9772 43.2496 56.7165 44.5604C58.1611 47.1213 61.1086 53.0138 61.4855 53.7434C61.9233 54.5897 62.9642 54.918 63.8105 54.4803C64.6568 54.0426 64.9851 53.0017 64.5473 52.1554L64.5425 52.1578Z" fill="url(#paint1_linear_3638_75)"/>
<path d="M84.7932 44.6601C84.0004 44.1615 82.9474 44.4461 82.4294 45.2267C81.4298 46.7297 80.4668 48.325 79.567 49.969C79.2751 50.5016 78.9736 51.0658 78.6623 51.647C76.7459 55.2293 73.8495 60.6428 71.4151 61.0951C71.2668 61.1219 71.0819 61.1389 70.8558 61.0951C70.8509 61.0951 70.8436 61.0951 70.8388 61.0951C70.3353 60.7692 69.6763 60.7133 69.1048 61.01C68.2585 61.4477 67.9302 62.4886 68.3679 63.3349C68.5698 63.7265 68.9029 64.0061 69.2847 64.1496C69.3285 64.1739 69.3699 64.1983 69.4185 64.2177C70.0435 64.4463 70.6247 64.5266 71.1403 64.5266C71.4686 64.5266 71.7702 64.4925 72.0377 64.4439C76.0796 63.6924 79.0465 58.1476 81.6633 53.2545C81.9697 52.683 82.264 52.1286 82.5534 51.6057C83.4192 50.0249 84.3457 48.4904 85.3088 47.0482C85.8389 46.253 85.6103 45.1732 84.7956 44.6601H84.7932Z" fill="url(#paint2_linear_3638_75)"/>
<path d="M70.5274 53.6826C73.3339 48.1451 77.1764 40.5623 79.3165 38.9354C80.0655 38.3663 80.209 37.2987 79.6399 36.5496C79.0708 35.8006 78.0032 35.6571 77.2542 36.2262C74.6958 38.1717 71.6048 44.0254 67.5216 52.0824C67.5118 52.1019 67.5021 52.1238 67.49 52.1432C66.9817 53.1452 66.4953 54.1033 66.0259 55.0202C65.7633 55.5333 65.5031 56.0367 65.2526 56.5158C64.9024 57.1822 64.4914 57.8874 64.0366 58.5465C63.4724 59.3661 62.8352 60.1151 62.147 60.6428C61.5293 61.117 60.8727 61.4113 60.1893 61.4113C60.1771 61.4113 60.165 61.4113 60.1552 61.4113C60.1455 61.4113 60.1309 61.4113 60.1188 61.4113C59.2019 61.4113 58.3337 60.8811 57.5458 60.0981C57.3439 59.8986 57.1494 59.6798 56.9597 59.4512C56.2277 58.5659 55.5881 57.5008 55.0749 56.5183C54.2043 54.8572 53.3458 53.1792 52.5165 51.5571C51.3516 49.2808 50.2524 47.131 49.1605 45.0979C47.9372 42.824 46.7845 40.8104 45.6609 39.0983C44.9605 38.0307 44.2698 37.0798 43.584 36.2602C41.6652 33.9645 39.7708 32.6853 37.7085 32.6853C32.5504 32.6853 28.292 41.0147 22.898 51.5595C22.0687 53.1816 21.2102 54.8597 20.342 56.5183C18.6859 59.6773 16.8936 61.4137 15.2958 61.4137H15.2763C14.3425 61.3967 13.5667 62.1603 13.5594 63.1015C13.5521 64.0427 14.306 64.8112 15.2471 64.8185C15.2642 64.8185 15.2812 64.8185 15.2982 64.8185C18.3065 64.8185 21.0157 62.5592 23.3576 58.099C24.2356 56.4258 25.0965 54.7405 25.9306 53.1087C28.3407 48.3932 30.6194 43.9403 32.7644 40.7277C35.3252 36.8925 36.867 36.0876 37.7085 36.0876C38.8126 36.0876 40.1696 37.3862 41.4877 39.1056C42.21 40.0468 42.9201 41.1168 43.5743 42.1698C44.6881 43.967 45.6293 45.718 46.1619 46.7078C47.2392 48.7093 48.3312 50.8446 49.4863 53.1038C50.3205 54.7356 51.1814 56.421 52.0593 58.0966C52.8935 59.6919 53.7763 61.0003 54.7028 62.029C54.9047 62.2528 55.1065 62.4668 55.3133 62.6638C56.8089 64.0937 58.414 64.8136 60.1163 64.8136C60.1406 64.8136 60.165 64.8136 60.1917 64.8136C61.556 64.8136 62.8596 64.3442 64.0974 63.4225C64.7589 62.9288 65.4009 62.3063 66.0235 61.5499C66.7166 60.7109 67.3805 59.7041 68.0225 58.5441C68.1052 58.3957 68.1879 58.2498 68.2682 58.0942C68.6524 57.3621 69.0488 56.5888 69.4574 55.7887C69.8052 55.1053 70.1626 54.4025 70.5299 53.6778L70.5274 53.6826Z" fill="#EA7B3F"/>
</g>
<defs>
<linearGradient id="paint0_linear_3638_75" x1="33.0124" y1="62.272" x2="35.6219" y2="32.0601" gradientUnits="userSpaceOnUse">
<stop stop-color="#EA7B40"/>
<stop offset="1" stop-color="#EA5270"/>
</linearGradient>
<linearGradient id="paint1_linear_3638_75" x1="53.5672" y1="64.0475" x2="56.1766" y2="33.8356" gradientUnits="userSpaceOnUse">
<stop stop-color="#EA7B40"/>
<stop offset="1" stop-color="#EA5270"/>
</linearGradient>
<linearGradient id="paint2_linear_3638_75" x1="75.8777" y1="65.9736" x2="78.4872" y2="35.7616" gradientUnits="userSpaceOnUse">
<stop stop-color="#EA7B40"/>
<stop offset="1" stop-color="#EA5270"/>
</linearGradient>
<clipPath id="clip0_3638_75">
<rect width="72.0339" height="32.1331" fill="white" transform="translate(13.5593 32.6853)"/>
</clipPath>
</defs>
</svg>
