<svg xmlns="http://www.w3.org/2000/svg" width="19" height="19" viewBox="0 0 19 19" fill="none">
  <path fill-rule="evenodd" clip-rule="evenodd" d="M9.5 17C5.35775 17 2 13.6423 2 9.5C2 5.35775 5.35775 2 9.5 2C13.6423 2 17 5.35775 17 9.5C17 13.6423 13.6423 17 9.5 17ZM9.5 16.1C11.2504 16.1 12.9292 15.4046 14.1669 14.1669C15.4046 12.9292 16.1 11.2504 16.1 9.5C16.1 7.74957 15.4046 6.07084 14.1669 4.8331C12.9292 3.59535 11.2504 2.9 9.5 2.9C7.74957 2.9 6.07084 3.59535 4.8331 4.8331C3.59535 6.07084 2.9 7.74957 2.9 9.5C2.9 11.2504 3.59535 12.9292 4.8331 14.1669C6.07084 15.4046 7.74957 16.1 9.5 16.1ZM9.05 8H9.95V13.25H9.05V8ZM9.5 7.25C9.30109 7.25 9.11032 7.17098 8.96967 7.03033C8.82902 6.88968 8.75 6.69891 8.75 6.5C8.75 6.30109 8.82902 6.11032 8.96967 5.96967C9.11032 5.82902 9.30109 5.75 9.5 5.75C9.69891 5.75 9.88968 5.82902 10.0303 5.96967C10.171 6.11032 10.25 6.30109 10.25 6.5C10.25 6.69891 10.171 6.88968 10.0303 7.03033C9.88968 7.17098 9.69891 7.25 9.5 7.25Z" fill="#4D4D4D"/>
</svg>
