<svg xmlns="http://www.w3.org/2000/svg" width="15" height="15" viewBox="0 0 15 15" fill="none">
  <g clip-path="url(#clip0_4682_4467)">
    <path d="M3.75 13.75C3.40625 13.75 3.11208 13.6277 2.8675 13.3831C2.62292 13.1385 2.50042 12.8442 2.5 12.5V6.25C2.5 5.90625 2.6225 5.61208 2.8675 5.3675C3.1125 5.12292 3.40667 5.00042 3.75 5H4.375V3.75C4.375 2.88542 4.67979 2.14854 5.28938 1.53938C5.89896 0.930209 6.63583 0.625417 7.5 0.625C8.36417 0.624584 9.10125 0.929375 9.71125 1.53938C10.3212 2.14938 10.6258 2.88625 10.625 3.75V5H11.25C11.5938 5 11.8881 5.1225 12.1331 5.3675C12.3781 5.6125 12.5004 5.90667 12.5 6.25V12.5C12.5 12.8438 12.3777 13.1381 12.1331 13.3831C11.8885 13.6281 11.5942 13.7504 11.25 13.75H3.75ZM3.75 12.5H11.25V6.25H3.75V12.5ZM8.38313 10.2575C8.62771 10.0133 8.75 9.71917 8.75 9.375C8.75 9.03083 8.62771 8.73667 8.38313 8.4925C8.13854 8.24833 7.84417 8.12583 7.5 8.125C7.15583 8.12417 6.86167 8.24667 6.6175 8.4925C6.37333 8.73833 6.25083 9.0325 6.25 9.375C6.24917 9.7175 6.37167 10.0119 6.6175 10.2581C6.86333 10.5044 7.1575 10.6267 7.5 10.625C7.8425 10.6233 8.13688 10.5004 8.38313 10.2575ZM5.625 5H9.375V3.75C9.375 3.22917 9.19271 2.78646 8.82812 2.42188C8.46354 2.05729 8.02083 1.875 7.5 1.875C6.97917 1.875 6.53646 2.05729 6.17188 2.42188C5.80729 2.78646 5.625 3.22917 5.625 3.75V5Z" fill="#808080"/>
  </g>
  <defs>
    <clipPath id="clip0_4682_4467">
      <rect width="15" height="15" fill="white"/>
    </clipPath>
  </defs>
</svg>
