<svg width="15" height="15" viewBox="0 0 15 15" fill="none" xmlns="http://www.w3.org/2000/svg">
  <path d="M10.7812 0.9375L7.96875 3.75L8.63203 4.40719L10.3125 2.72719V13.125H2.8125V5.625H1.875V13.125C1.87537 13.3735 1.97426 13.6118 2.15 13.7875C2.32573 13.9632 2.56397 14.0621 2.8125 14.0625H10.3125C10.561 14.0621 10.7993 13.9632 10.975 13.7875C11.1507 13.6118 11.2496 13.3735 11.25 13.125V2.72578L12.9309 4.40719L13.5938 3.75L10.7812 0.9375Z" fill="white"/>
  <path d="M7.5 11.25H5.625C5.37636 11.25 5.1379 11.1512 4.96209 10.9754C4.78627 10.7996 4.6875 10.5611 4.6875 10.3125V8.4375C4.6875 8.18886 4.78627 7.9504 4.96209 7.77459C5.1379 7.59877 5.37636 7.5 5.625 7.5H7.5C7.74864 7.5 7.9871 7.59877 8.16291 7.77459C8.33873 7.9504 8.4375 8.18886 8.4375 8.4375V10.3125C8.4375 10.5611 8.33873 10.7996 8.16291 10.9754C7.9871 11.1512 7.74864 11.25 7.5 11.25ZM5.625 8.4375V10.3125H7.5V8.4375H5.625Z" fill="white"/>
</svg>
