<svg xmlns="http://www.w3.org/2000/svg" width="15" height="15" viewBox="0 0 15 15" fill="none">
  <path d="M3.75 5H6.25" stroke="white" stroke-linecap="round" stroke-linejoin="round"/>
  <path d="M13.0206 5.625H11.3944C10.2788 5.625 9.375 6.46438 9.375 7.5C9.375 8.53562 10.2794 9.375 11.3937 9.375H13.0206C13.0731 9.375 13.0988 9.375 13.1206 9.37375C13.4581 9.35313 13.7269 9.10375 13.7487 8.79062C13.75 8.77062 13.75 8.74625 13.75 8.69812V6.30188C13.75 6.25375 13.75 6.22938 13.7487 6.20938C13.7262 5.89625 13.4581 5.64687 13.1206 5.62625C13.0994 5.625 13.0731 5.625 13.0206 5.625Z" stroke="white"/>
  <path d="M13.1031 5.625C13.0544 4.455 12.8981 3.7375 12.3925 3.2325C11.6606 2.5 10.4819 2.5 8.125 2.5H6.25C3.89313 2.5 2.71437 2.5 1.9825 3.2325C1.25062 3.965 1.25 5.14313 1.25 7.5C1.25 9.85687 1.25 11.0356 1.9825 11.7675C2.715 12.4994 3.89313 12.5 6.25 12.5H8.125C10.4819 12.5 11.6606 12.5 12.3925 11.7675C12.8981 11.2625 13.055 10.545 13.1031 9.375" stroke="white"/>
  <path d="M11.2441 7.5H11.2504" stroke="white" stroke-linecap="round" stroke-linejoin="round"/>
</svg>
